<svg width="199" height="43" viewBox="0 0 199 43" fill="none" xmlns="http://www.w3.org/2000/svg">
<g clip-path="url(#clip0_4192_9156)">
<path d="M56.6559 26.8558C56.1276 26.8558 55.7284 26.7117 55.4467 26.4354C55.1649 26.1591 55.024 25.7388 55.024 25.1742V10.1843C55.024 9.64379 55.1649 9.23541 55.4467 8.94714C55.7284 8.65887 56.1393 8.51474 56.6559 8.51474C57.1724 8.51474 57.6068 8.65887 57.8885 8.93513C58.1586 9.21138 58.2994 9.63178 58.2994 10.1963V25.1862C58.2994 25.7267 58.1586 26.1351 57.8885 26.4234C57.6185 26.7117 57.2076 26.8558 56.6559 26.8558ZM56.6207 15.3851C56.6207 14.0399 56.9376 12.8388 57.5833 11.7818C58.229 10.7248 59.0977 9.872 60.1895 9.24742C61.2813 8.62284 62.4905 8.31055 63.7936 8.31055C65.0967 8.31055 66.0829 8.52675 66.7285 8.95915C67.3742 9.39155 67.6208 9.92004 67.4682 10.5206C67.3977 10.8329 67.2803 11.0731 67.0925 11.2413C66.9046 11.4094 66.6933 11.5175 66.4585 11.5536C66.212 11.6016 65.9537 11.5896 65.672 11.5175C64.2749 11.2293 63.0188 11.2052 61.9035 11.4455C60.7883 11.6857 59.9078 12.1541 59.2621 12.8147C58.6164 13.4874 58.2994 14.3402 58.2994 15.3611H56.6324L56.6207 15.3851Z" fill="black"/>
<path d="M78.0691 26.9887C76.2494 26.9887 74.6411 26.5923 73.2323 25.7996C71.8235 25.0069 70.72 23.9138 69.9217 22.5085C69.1234 21.1152 68.7242 19.5057 68.7242 17.6921C68.7242 15.8784 69.0999 14.2448 69.8513 12.8395C70.6026 11.4462 71.6474 10.3412 72.9858 9.54848C74.3241 8.75574 75.8503 8.35938 77.576 8.35938C79.3017 8.35938 80.7457 8.74373 81.9666 9.51245C83.1876 10.2812 84.1268 11.3502 84.7724 12.6954C85.4181 14.0527 85.7351 15.6141 85.7351 17.3798C85.7351 17.8002 85.5942 18.1605 85.3125 18.4368C85.0307 18.713 84.6668 18.8571 84.2324 18.8571H71.0135V16.1786H84.1268L82.7884 17.1155C82.7649 15.9985 82.5419 15.0016 82.131 14.1127C81.7201 13.2239 81.1214 12.5273 80.3583 12.0108C79.5952 11.4943 78.6678 11.2421 77.576 11.2421C76.3316 11.2421 75.2633 11.5183 74.3828 12.0828C73.5023 12.6474 72.8214 13.4041 72.3636 14.377C71.9057 15.3499 71.6709 16.4549 71.6709 17.68C71.6709 18.9052 71.9409 20.0102 72.4927 20.9711C73.0445 21.932 73.7958 22.6887 74.7585 23.2532C75.7211 23.8178 76.8246 24.094 78.0691 24.094C78.75 24.094 79.4426 23.9619 80.147 23.7097C80.8631 23.4574 81.4266 23.1571 81.8727 22.8208C82.2014 22.5686 82.5536 22.4485 82.941 22.4365C83.3285 22.4365 83.6572 22.5446 83.9389 22.7848C84.3146 23.1211 84.5024 23.4935 84.5259 23.8898C84.5494 24.2862 84.3733 24.6345 83.9976 24.9348C83.258 25.5354 82.3306 26.0278 81.227 26.4122C80.1235 26.7965 79.0669 26.9767 78.0573 26.9767L78.0691 26.9887Z" fill="black"/>
<path d="M95.4087 26.821C94.7278 26.821 94.2113 26.4487 93.8356 25.716L86.8857 10.714C86.7096 10.3297 86.6978 9.95732 86.8387 9.58498C86.9796 9.21263 87.2613 8.93637 87.6722 8.73218C88.0479 8.52799 88.4236 8.49196 88.7992 8.63609C89.1867 8.76822 89.4684 9.03246 89.668 9.40481L96.1601 23.7341H94.5869L101.009 9.40481C101.208 9.02045 101.502 8.76822 101.913 8.63609C102.312 8.50397 102.723 8.54 103.145 8.73218C103.533 8.91235 103.803 9.18861 103.932 9.57296C104.061 9.95732 104.037 10.3297 103.861 10.714L96.9114 25.716C96.5827 26.4487 96.0779 26.821 95.397 26.821H95.4087Z" fill="black"/>
<path d="M114.791 26.9887C113.018 26.9887 111.457 26.5923 110.107 25.7996C108.757 25.0069 107.688 23.9138 106.914 22.5085C106.139 21.1152 105.751 19.5057 105.751 17.6921C105.751 15.8784 106.139 14.2448 106.914 12.8395C107.688 11.4462 108.757 10.3412 110.107 9.54848C111.457 8.75574 113.03 8.35938 114.791 8.35938C116.552 8.35938 118.09 8.75574 119.452 9.54848C120.813 10.3412 121.87 11.4342 122.645 12.8395C123.42 14.2328 123.807 15.8543 123.807 17.6921C123.807 19.5298 123.42 21.1032 122.657 22.5085C121.894 23.9018 120.837 25.0069 119.475 25.7996C118.113 26.5923 116.552 26.9887 114.791 26.9887ZM114.791 23.9739C115.93 23.9739 116.928 23.7097 117.808 23.1692C118.677 22.6287 119.369 21.896 119.863 20.9591C120.356 20.0222 120.602 18.9412 120.602 17.7041C120.602 16.4669 120.356 15.3859 119.863 14.437C119.369 13.4881 118.689 12.7435 117.808 12.203C116.928 11.6624 115.93 11.3982 114.791 11.3982C113.652 11.3982 112.643 11.6624 111.774 12.203C110.893 12.7435 110.212 13.4881 109.708 14.437C109.203 15.3859 108.956 16.4789 108.956 17.7041C108.956 18.9292 109.203 20.0222 109.708 20.9591C110.212 21.896 110.893 22.6407 111.774 23.1692C112.643 23.7097 113.652 23.9739 114.791 23.9739Z" fill="black"/>
<path d="M133.046 26.8562C132.084 26.8562 131.227 26.592 130.487 26.0515C129.747 25.511 129.16 24.7783 128.75 23.8534C128.339 22.9286 128.127 21.8596 128.127 20.6465V2.34143C128.127 1.84897 128.28 1.4526 128.585 1.14031C128.89 0.82802 129.29 0.671875 129.771 0.671875C130.252 0.671875 130.64 0.82802 130.957 1.14031C131.262 1.4526 131.414 1.86098 131.414 2.34143V20.6585C131.414 21.4872 131.567 22.1719 131.872 22.7004C132.178 23.2409 132.577 23.5051 133.058 23.5051H133.88C134.314 23.5051 134.666 23.6613 134.948 23.9736C135.218 24.2858 135.359 24.6942 135.359 25.1867C135.359 25.6791 135.148 26.0875 134.737 26.3998C134.326 26.7121 133.786 26.8682 133.128 26.8682H133.058L133.046 26.8562Z" fill="black"/>
<path d="M143.706 26.821C143.025 26.821 142.508 26.4487 142.133 25.716L135.183 10.714C135.007 10.3297 134.995 9.95732 135.136 9.58498C135.277 9.21263 135.559 8.93637 135.969 8.73218C136.345 8.52799 136.721 8.49196 137.096 8.63609C137.484 8.76822 137.766 9.03246 137.965 9.40481L144.457 23.7341H142.884L149.306 9.40481C149.505 9.02045 149.799 8.76822 150.21 8.63609C150.609 8.50397 151.02 8.54 151.442 8.73218C151.83 8.91235 152.1 9.18861 152.229 9.57296C152.358 9.95732 152.335 10.3297 152.158 10.714L145.209 25.716C144.88 26.4487 144.375 26.821 143.694 26.821H143.706Z" fill="black"/>
<path d="M163.382 26.9887C161.562 26.9887 159.954 26.5923 158.545 25.7996C157.136 25.0069 156.033 23.9138 155.234 22.5085C154.436 21.1152 154.037 19.5057 154.037 17.6921C154.037 15.8784 154.413 14.2448 155.164 12.8395C155.915 11.4462 156.96 10.3412 158.298 9.54848C159.637 8.75574 161.163 8.35938 162.889 8.35938C164.614 8.35938 166.058 8.74373 167.279 9.51245C168.5 10.2812 169.439 11.3502 170.085 12.6954C170.731 14.0527 171.048 15.6141 171.048 17.3798C171.048 17.8002 170.907 18.1605 170.625 18.4368C170.343 18.713 169.979 18.8571 169.545 18.8571H156.326V16.1786H169.439L168.101 17.1155C168.078 15.9985 167.855 15.0016 167.444 14.1127C167.033 13.2239 166.434 12.5273 165.671 12.0108C164.908 11.4943 163.98 11.2421 162.889 11.2421C161.644 11.2421 160.576 11.5183 159.695 12.0828C158.815 12.6474 158.134 13.4041 157.676 14.377C157.218 15.3499 156.984 16.4549 156.984 17.68C156.984 18.9052 157.254 20.0102 157.805 20.9711C158.357 21.932 159.108 22.6887 160.071 23.2532C161.034 23.8178 162.137 24.094 163.382 24.094C164.063 24.094 164.755 23.9619 165.46 23.7097C166.176 23.4574 166.739 23.1571 167.185 22.8208C167.514 22.5686 167.866 22.4485 168.254 22.4365C168.641 22.4365 168.97 22.5446 169.252 22.7848C169.627 23.1211 169.815 23.4935 169.839 23.8898C169.862 24.2862 169.686 24.6345 169.31 24.9348C168.571 25.5354 167.643 26.0278 166.54 26.4122C165.436 26.7965 164.38 26.9767 163.37 26.9767L163.382 26.9887Z" fill="black"/>
<path d="M182.787 26.9886C181.085 26.9886 179.547 26.5803 178.185 25.7635C176.824 24.9468 175.732 23.8297 174.934 22.4244C174.135 21.0191 173.736 19.4216 173.736 17.656C173.736 15.8903 174.1 14.3048 174.84 12.9116C175.567 11.5183 176.577 10.4132 177.845 9.58446C179.113 8.7677 180.545 8.35932 182.142 8.35932C183.433 8.35932 184.619 8.63558 185.711 9.17608C186.802 9.72859 187.718 10.4733 188.469 11.4102V2.36574C188.469 1.84926 188.622 1.44088 188.939 1.12859C189.256 0.816302 189.655 0.660156 190.136 0.660156C190.618 0.660156 191.04 0.816302 191.346 1.12859C191.651 1.44088 191.804 1.86127 191.804 2.36574V17.668C191.804 19.4336 191.404 21.0191 190.606 22.4364C189.808 23.8537 188.728 24.9588 187.378 25.7755C186.016 26.5923 184.49 27.0007 182.787 27.0007V26.9886ZM182.787 23.9738C183.903 23.9738 184.901 23.6976 185.769 23.1571C186.65 22.6046 187.331 21.8599 187.835 20.887C188.34 19.9261 188.587 18.8571 188.587 17.668C188.587 16.4789 188.34 15.3859 187.835 14.449C187.331 13.5121 186.65 12.7674 185.769 12.2149C184.901 11.6624 183.903 11.3981 182.787 11.3981C181.672 11.3981 180.709 11.6744 179.817 12.2149C178.937 12.7674 178.232 13.5121 177.716 14.449C177.199 15.3859 176.941 16.4669 176.941 17.668C176.941 18.8691 177.199 19.9261 177.716 20.887C178.232 21.8479 178.925 22.6046 179.817 23.1571C180.698 23.7096 181.696 23.9738 182.787 23.9738Z" fill="black"/>
<path d="M196.347 26.8568C197.812 26.8568 199 25.6415 199 24.1423C199 22.6431 197.812 21.4277 196.347 21.4277C194.882 21.4277 193.694 22.6431 193.694 24.1423C193.694 25.6415 194.882 26.8568 196.347 26.8568Z" fill="#0C7885"/>
<path d="M129.536 43C128.75 43 128.01 42.8439 127.317 42.5316C126.625 42.2193 126.014 41.7749 125.486 41.2224C124.958 40.6699 124.535 40.0213 124.241 39.3006C123.936 38.5679 123.784 37.7992 123.784 36.9704C123.784 36.1417 123.925 35.385 124.23 34.6643C124.523 33.9316 124.934 33.295 125.462 32.7425C125.991 32.19 126.601 31.7456 127.294 31.4333C127.986 31.121 128.738 30.9648 129.548 30.9648C130.229 30.9648 130.863 31.0729 131.473 31.3012C132.084 31.5174 132.647 31.8537 133.175 32.3101C133.269 32.3822 133.305 32.4783 133.305 32.5984C133.305 32.7185 133.269 32.8386 133.187 32.9347C133.105 33.0308 132.999 33.0788 132.858 33.0788C132.823 33.0788 132.776 33.0788 132.741 33.0548C132.706 33.0428 132.659 33.0188 132.624 32.9947C132.588 32.9707 132.541 32.9347 132.495 32.8986C132.107 32.5383 131.661 32.2741 131.156 32.1179C130.651 31.9618 130.111 31.8777 129.536 31.8777C128.879 31.8777 128.256 32.0218 127.669 32.2861C127.082 32.5503 126.566 32.9347 126.108 33.4151C125.65 33.8956 125.31 34.4361 125.052 35.0486C124.793 35.6612 124.664 36.3098 124.664 36.9945C124.664 37.6791 124.793 38.3637 125.052 38.9763C125.31 39.6009 125.662 40.1414 126.108 40.6218C126.554 41.0903 127.071 41.4626 127.658 41.7269C128.245 41.9911 128.879 42.1232 129.536 42.1232C130.111 42.1232 130.651 42.0271 131.156 41.859C131.661 41.6788 132.131 41.4026 132.577 41.0302C132.659 40.9581 132.753 40.9341 132.858 40.9581C132.964 40.9822 133.058 41.0302 133.14 41.1023C133.222 41.1864 133.258 41.2824 133.258 41.4146C133.258 41.4746 133.258 41.5347 133.246 41.5827C133.246 41.6308 133.211 41.6788 133.152 41.7269C132.671 42.2193 132.119 42.5556 131.485 42.7478C130.851 42.928 130.205 43.0241 129.536 43.0241V43Z" fill="black"/>
<path d="M139.773 42.8429C139.656 42.8429 139.55 42.7949 139.468 42.7108C139.386 42.6267 139.339 42.5186 139.339 42.3865V31.5404C139.339 31.4083 139.386 31.3002 139.468 31.2161C139.562 31.132 139.656 31.084 139.773 31.084C139.902 31.084 140.008 31.132 140.09 31.2161C140.172 31.3002 140.219 31.4083 140.219 31.5404V42.0262H146.265C146.406 42.0262 146.512 42.0622 146.594 42.1343C146.676 42.2063 146.711 42.3024 146.711 42.4345C146.711 42.5667 146.676 42.6507 146.594 42.7228C146.512 42.7949 146.406 42.8309 146.265 42.8309H139.773V42.8429Z" fill="black"/>
<path d="M152.663 42.8429C152.534 42.8429 152.429 42.7949 152.346 42.7108C152.264 42.6267 152.217 42.5186 152.217 42.3865V31.5404C152.217 31.4083 152.264 31.3002 152.346 31.2161C152.429 31.132 152.534 31.084 152.663 31.084C152.792 31.084 152.898 31.132 152.98 31.2161C153.062 31.3002 153.109 31.4083 153.109 31.5404V42.3865C153.109 42.5186 153.062 42.6267 152.98 42.7108C152.898 42.7949 152.792 42.8429 152.663 42.8429Z" fill="black"/>
<path d="M160.165 42.8429C160.036 42.8429 159.93 42.7949 159.848 42.7108C159.766 42.6267 159.719 42.5186 159.719 42.3865V31.5404C159.719 31.4083 159.766 31.3002 159.848 31.2161C159.93 31.132 160.036 31.084 160.165 31.084C160.306 31.084 160.412 31.132 160.505 31.2401L167.984 41.1854V31.5404C167.984 31.4083 168.031 31.3002 168.113 31.2161C168.195 31.132 168.301 31.084 168.43 31.084C168.547 31.084 168.653 31.132 168.735 31.2161C168.829 31.3002 168.864 31.4083 168.864 31.5404V42.3865C168.864 42.5186 168.817 42.6267 168.735 42.7108C168.653 42.7949 168.547 42.8429 168.43 42.8429C168.359 42.8429 168.301 42.8309 168.242 42.8069C168.183 42.7829 168.148 42.7468 168.101 42.7108L160.611 32.7535V42.3985C160.611 42.5306 160.564 42.6387 160.482 42.7228C160.4 42.8069 160.294 42.8549 160.165 42.8549V42.8429Z" fill="black"/>
<path d="M175.92 42.8429C175.791 42.8429 175.685 42.7949 175.603 42.7108C175.521 42.6267 175.474 42.5186 175.474 42.3865V31.5404C175.474 31.4083 175.521 31.3002 175.603 31.2161C175.685 31.132 175.791 31.084 175.92 31.084C176.049 31.084 176.155 31.132 176.237 31.2161C176.319 31.3002 176.366 31.4083 176.366 31.5404V42.3865C176.366 42.5186 176.319 42.6267 176.237 42.7108C176.155 42.7949 176.049 42.8429 175.92 42.8429Z" fill="black"/>
<path d="M188.141 43C187.354 43 186.615 42.8439 185.922 42.5316C185.229 42.2193 184.619 41.7749 184.091 41.2224C183.562 40.6699 183.14 40.0213 182.846 39.3006C182.541 38.5679 182.388 37.7992 182.388 36.9704C182.388 36.1417 182.529 35.385 182.834 34.6643C183.128 33.9316 183.539 33.295 184.067 32.7425C184.595 32.19 185.206 31.7456 185.898 31.4333C186.591 31.121 187.342 30.9648 188.153 30.9648C188.833 30.9648 189.467 31.0729 190.078 31.3012C190.688 31.5174 191.252 31.8537 191.78 32.3101C191.874 32.3822 191.909 32.4783 191.909 32.5984C191.909 32.7185 191.874 32.8386 191.792 32.9347C191.71 33.0308 191.604 33.0788 191.463 33.0788C191.428 33.0788 191.381 33.0788 191.346 33.0548C191.31 33.0428 191.264 33.0188 191.228 32.9947C191.193 32.9707 191.146 32.9347 191.099 32.8986C190.712 32.5383 190.266 32.2741 189.761 32.1179C189.256 31.9618 188.716 31.8777 188.141 31.8777C187.483 31.8777 186.861 32.0218 186.274 32.2861C185.687 32.5503 185.171 32.9347 184.713 33.4151C184.255 33.8956 183.914 34.4361 183.656 35.0486C183.398 35.6612 183.269 36.3098 183.269 36.9945C183.269 37.6791 183.398 38.3637 183.656 38.9763C183.914 39.6009 184.267 40.1414 184.713 40.6218C185.159 41.0903 185.675 41.4626 186.262 41.7269C186.849 41.9911 187.483 42.1232 188.141 42.1232C188.716 42.1232 189.256 42.0271 189.761 41.859C190.266 41.6788 190.735 41.4026 191.181 41.0302C191.264 40.9581 191.357 40.9341 191.463 40.9581C191.569 40.9822 191.663 41.0302 191.745 41.1023C191.827 41.1864 191.862 41.2824 191.862 41.4146C191.862 41.4746 191.862 41.5347 191.851 41.5827C191.851 41.6308 191.815 41.6788 191.757 41.7269C191.275 42.2193 190.724 42.5556 190.09 42.7478C189.456 42.928 188.81 43.0241 188.141 43.0241V43Z" fill="black"/>
<path d="M13.7 42.844C13.7 42.844 7.00838 29.4636 7.05534 16.9839C7.10229 4.50433 13.0309 -0.612426 17.715 3.97584C22.3991 8.56411 23.8901 16.2993 21.73 24.4669C19.5699 32.6345 17.3511 36.2138 17.3511 36.2138C17.3511 36.2138 31.5092 36.4781 40.2083 28.5267C48.9074 20.5753 44.5285 9.81327 37.6843 9.24875C31.8261 8.7683 29.5017 12.0954 29.5017 12.0954C29.5017 12.0954 37.426 9.93339 38.506 17.8367C39.5861 25.7401 35.5711 28.5867 29.5486 31.4814C23.5262 34.3761 20.9552 34.7965 20.9552 34.7965C20.9552 34.7965 26.7781 24.9474 26.7781 14.882C26.7781 4.81663 20.1451 -1.29706 11.7982 0.228356C3.45124 1.75378 -0.552004 12.768 0.0584617 21.0437C0.680667 29.3074 6.03398 36.1057 8.96891 39.1085C11.9038 42.1113 13.7 42.844 13.7 42.844Z" fill="#0C7885"/>
<path d="M42.1808 3.84373C42.5095 3.51943 42.8969 3.36328 43.3665 3.36328C43.8361 3.36328 44.2353 3.53144 44.564 3.85574C44.8927 4.18004 45.057 4.58842 45.057 5.06887C45.057 5.54931 44.8927 5.94568 44.564 6.26998C44.2353 6.59429 43.8361 6.75043 43.3665 6.75043C42.8969 6.75043 42.5095 6.59429 42.1808 6.26998C41.8521 5.94568 41.6877 5.54931 41.6877 5.06887C41.6877 4.58842 41.8521 4.18004 42.1808 3.85574V3.84373ZM42.3569 6.10183C42.6152 6.37809 42.9556 6.51021 43.3665 6.51021C43.7774 6.51021 44.1296 6.37809 44.3996 6.10183C44.6696 5.82557 44.7988 5.47725 44.7988 5.05686C44.7988 4.63647 44.6696 4.27613 44.3996 3.99987C44.1296 3.72362 43.7892 3.59149 43.3665 3.59149C42.9439 3.59149 42.6269 3.72362 42.3569 3.99987C42.0986 4.27613 41.9578 4.62445 41.9578 5.05686C41.9578 5.48926 42.0869 5.83758 42.3569 6.10183ZM43.2843 4.07194C43.5544 4.07194 43.7657 4.14401 43.8948 4.27613C44.0239 4.40825 44.0944 4.60043 44.0944 4.81663C44.0944 5.11691 43.9653 5.33311 43.6952 5.45323L44.0944 6.01775H43.7892L43.437 5.52529H43.0261V6.01775H42.7678V4.07194H43.2609H43.2843ZM43.0496 5.3211H43.2726C43.66 5.3211 43.8479 5.15295 43.8479 4.81663C43.8479 4.4563 43.66 4.27613 43.2726 4.27613H43.0496V5.3211Z" fill="black"/>
</g>
<defs>
<clipPath id="clip0_4192_9156">
<rect width="199" height="43" fill="white"/>
</clipPath>
</defs>
</svg>
